<?xml version="1.0" encoding="UTF-8" standalone="no"?>
<!DOCTYPE svg PUBLIC "-//W3C//DTD SVG 1.1//EN"
 "http://www.w3.org/Graphics/SVG/1.1/DTD/svg11.dtd">
<!-- Generated by graphviz version 2.28.0 (20120421.0937)
 -->
<!-- Title: G Pages: 1 -->
<svg width="456pt" height="1645pt"
 viewBox="0.00 0.00 456.00 1645.00" xmlns="http://www.w3.org/2000/svg" xmlns:xlink="http://www.w3.org/1999/xlink">
<g id="graph1" class="graph" transform="scale(1 1) rotate(0) translate(4 1641)">
<title>G</title>
<polygon fill="white" stroke="white" points="-4,5 -4,-1641 453,-1641 453,5 -4,5"/>
<g id="graph2" class="cluster"><title>cluster_Global</title>
<polyline fill="none" stroke="gray" points="20,-44 428,-44 "/>
<path fill="none" stroke="gray" d="M428,-44C434,-44 440,-50 440,-56"/>
<polyline fill="none" stroke="gray" points="440,-56 440,-1617 "/>
<path fill="none" stroke="gray" d="M440,-1617C440,-1623 434,-1629 428,-1629"/>
<polyline fill="none" stroke="gray" points="428,-1629 20,-1629 "/>
<path fill="none" stroke="gray" d="M20,-1629C14,-1629 8,-1623 8,-1617"/>
<polyline fill="none" stroke="gray" points="8,-1617 8,-56 "/>
<path fill="none" stroke="gray" d="M8,-56C8,-50 14,-44 20,-44"/>
<text text-anchor="middle" x="224" y="-1614" font-family="Times,serif" font-size="11.00" fill="gray">\</text>
</g>
<!-- \\NotFoundException -->
<g id="node2" class="node"><title>\\NotFoundException</title>
<polygon fill="none" stroke="black" points="395.218,-88 266.782,-88 266.782,-52 395.218,-52 395.218,-88"/>
<text text-anchor="middle" x="331" y="-65.6" font-family="Courier,monospace" font-size="11.00">NotFoundException</text>
</g>
<!-- \\Exception -->
<g id="node35" class="node"><title>\\Exception</title>
<ellipse fill="none" stroke="black" cx="87" cy="-18" rx="52.7417" ry="18"/>
<text text-anchor="middle" x="87" y="-12.4" font-family="Times,serif" font-size="14.00" fill="gray">\Exception</text>
</g>
<!-- \\NotFoundException&#45;&gt;\\Exception -->
<g id="edge3" class="edge"><title>\\NotFoundException&#45;&gt;\\Exception</title>
<path fill="none" stroke="black" d="M266.733,-56.4055C228.075,-48.0987 179.147,-37.5852 142.26,-29.6592"/>
<polygon fill="none" stroke="black" points="142.706,-26.1752 132.194,-27.4963 141.236,-33.019 142.706,-26.1752"/>
</g>
<!-- \\App -->
<g id="node3" class="node"><title>\\App</title>
<polygon fill="none" stroke="black" points="358,-1546 304,-1546 304,-1510 358,-1510 358,-1546"/>
<text text-anchor="middle" x="331" y="-1523.6" font-family="Courier,monospace" font-size="11.00">App</text>
</g>
<!-- \\Controller -->
<g id="node4" class="node"><title>\\Controller</title>
<polygon fill="none" stroke="black" points="128.5,-1600 45.5,-1600 45.5,-1564 128.5,-1564 128.5,-1600"/>
<text text-anchor="start" x="54" y="-1583.5" font-family="Courier,monospace" font-size="11.00">«abstract»</text>
<text text-anchor="start" x="54" y="-1572.5" font-family="Courier,monospace" font-size="11.00">Controller</text>
</g>
<!-- \\BaseController -->
<g id="node5" class="node"><title>\\BaseController</title>
<polygon fill="none" stroke="black" points="385.5,-1600 276.5,-1600 276.5,-1564 385.5,-1564 385.5,-1600"/>
<text text-anchor="start" x="298" y="-1583.5" font-family="Courier,monospace" font-size="11.00">«abstract»</text>
<text text-anchor="start" x="285" y="-1572.5" font-family="Courier,monospace" font-size="11.00">BaseController</text>
</g>
<!-- \\BaseController&#45;&gt;\\Controller -->
<g id="edge5" class="edge"><title>\\BaseController&#45;&gt;\\Controller</title>
<path fill="none" stroke="black" d="M276.292,-1582C235.301,-1582 179.202,-1582 138.918,-1582"/>
<polygon fill="none" stroke="black" points="138.778,-1578.5 128.778,-1582 138.778,-1585.5 138.778,-1578.5"/>
</g>
<!-- \\Module -->
<g id="node6" class="node"><title>\\Module</title>
<polygon fill="none" stroke="black" points="372.5,-1438 289.5,-1438 289.5,-1402 372.5,-1402 372.5,-1438"/>
<text text-anchor="start" x="298" y="-1421.5" font-family="Courier,monospace" font-size="11.00">«abstract»</text>
<text text-anchor="start" x="311.5" y="-1410.5" font-family="Courier,monospace" font-size="11.00">Module</text>
</g>
<!-- \\Model -->
<g id="node7" class="node"><title>\\Model</title>
<polygon fill="none" stroke="black" points="128.5,-439 45.5,-439 45.5,-403 128.5,-403 128.5,-439"/>
<text text-anchor="start" x="54" y="-422.5" font-family="Courier,monospace" font-size="11.00">«abstract»</text>
<text text-anchor="start" x="70.5" y="-411.5" font-family="Courier,monospace" font-size="11.00">Model</text>
</g>
<!-- \\ViewModel -->
<g id="node8" class="node"><title>\\ViewModel</title>
<polygon fill="none" stroke="black" points="372.5,-1384 289.5,-1384 289.5,-1348 372.5,-1348 372.5,-1384"/>
<text text-anchor="start" x="298" y="-1367.5" font-family="Courier,monospace" font-size="11.00">«abstract»</text>
<text text-anchor="start" x="301.5" y="-1356.5" font-family="Courier,monospace" font-size="11.00">ViewModel</text>
</g>
<!-- \\View -->
<g id="node9" class="node"><title>\\View</title>
<polygon fill="none" stroke="black" points="358,-1330 304,-1330 304,-1294 358,-1294 358,-1330"/>
<text text-anchor="middle" x="331" y="-1307.6" font-family="Courier,monospace" font-size="11.00">View</text>
</g>
<!-- \\Search -->
<g id="node10" class="node"><title>\\Search</title>
<polygon fill="none" stroke="black" points="358.608,-1276 303.392,-1276 303.392,-1240 358.608,-1240 358.608,-1276"/>
<text text-anchor="middle" x="331" y="-1253.6" font-family="Courier,monospace" font-size="11.00">Search</text>
</g>
<!-- \\DBHelper -->
<g id="node11" class="node"><title>\\DBHelper</title>
<polygon fill="none" stroke="black" points="365.309,-1222 296.691,-1222 296.691,-1186 365.309,-1186 365.309,-1222"/>
<text text-anchor="middle" x="331" y="-1199.6" font-family="Courier,monospace" font-size="11.00">DBHelper</text>
</g>
<!-- \\Validator -->
<g id="node12" class="node"><title>\\Validator</title>
<polygon fill="none" stroke="black" points="368.911,-1168 293.089,-1168 293.089,-1132 368.911,-1132 368.911,-1168"/>
<text text-anchor="middle" x="331" y="-1145.6" font-family="Courier,monospace" font-size="11.00">Validator</text>
</g>
<!-- \\Urls -->
<g id="node13" class="node"><title>\\Urls</title>
<polygon fill="none" stroke="black" points="358,-1114 304,-1114 304,-1078 358,-1078 358,-1114"/>
<text text-anchor="middle" x="331" y="-1091.6" font-family="Courier,monospace" font-size="11.00">Urls</text>
</g>
<!-- \\Route -->
<g id="node14" class="node"><title>\\Route</title>
<polygon fill="none" stroke="black" points="358,-1060 304,-1060 304,-1024 358,-1024 358,-1060"/>
<text text-anchor="middle" x="331" y="-1037.6" font-family="Courier,monospace" font-size="11.00">Route</text>
</g>
<!-- \\Acl -->
<g id="node15" class="node"><title>\\Acl</title>
<polygon fill="none" stroke="black" points="358,-1006 304,-1006 304,-970 358,-970 358,-1006"/>
<text text-anchor="middle" x="331" y="-983.6" font-family="Courier,monospace" font-size="11.00">Acl</text>
</g>
<!-- \\I18N -->
<g id="node16" class="node"><title>\\I18N</title>
<polygon fill="none" stroke="black" points="358,-952 304,-952 304,-916 358,-916 358,-952"/>
<text text-anchor="middle" x="331" y="-929.6" font-family="Courier,monospace" font-size="11.00">I18N</text>
</g>
<!-- \\Configuration -->
<g id="node17" class="node"><title>\\Configuration</title>
<polygon fill="none" stroke="black" points="381.814,-412 280.186,-412 280.186,-376 381.814,-376 381.814,-412"/>
<text text-anchor="middle" x="331" y="-389.6" font-family="Courier,monospace" font-size="11.00">Configuration</text>
</g>
<!-- \\Configuration&#45;&gt;\\Model -->
<g id="edge7" class="edge"><title>\\Configuration&#45;&gt;\\Model</title>
<path fill="none" stroke="black" d="M280.151,-399.562C238.823,-404.173 180.321,-410.7 138.747,-415.338"/>
<polygon fill="none" stroke="black" points="138.113,-411.887 128.563,-416.474 138.889,-418.844 138.113,-411.887"/>
</g>
<!-- \\Configuration_Input -->
<g id="node18" class="node"><title>\\Configuration_Input</title>
<polygon fill="none" stroke="black" points="158,-736 16,-736 16,-700 158,-700 158,-736"/>
<text text-anchor="start" x="54" y="-719.5" font-family="Courier,monospace" font-size="11.00">«abstract»</text>
<text text-anchor="start" x="24.5" y="-708.5" font-family="Courier,monospace" font-size="11.00">Configuration_Input</text>
</g>
<!-- \\Configuration_Input_None -->
<g id="node19" class="node"><title>\\Configuration_Input_None</title>
<polygon fill="none" stroke="black" points="418.426,-844 243.574,-844 243.574,-808 418.426,-808 418.426,-844"/>
<text text-anchor="middle" x="331" y="-821.6" font-family="Courier,monospace" font-size="11.00">Configuration_Input_None</text>
</g>
<!-- \\Configuration_Input_None&#45;&gt;\\Configuration_Input -->
<g id="edge9" class="edge"><title>\\Configuration_Input_None&#45;&gt;\\Configuration_Input</title>
<path fill="none" stroke="black" d="M254.766,-807.923C246.306,-805.233 237.897,-802.256 230,-799 191.999,-783.333 151.548,-759.469 123.581,-741.696"/>
<polygon fill="none" stroke="black" points="125.263,-738.617 114.958,-736.158 121.481,-744.507 125.263,-738.617"/>
</g>
<!-- \\Configuration_Input_Text -->
<g id="node20" class="node"><title>\\Configuration_Input_Text</title>
<polygon fill="none" stroke="black" points="418.426,-790 243.574,-790 243.574,-754 418.426,-754 418.426,-790"/>
<text text-anchor="middle" x="331" y="-767.6" font-family="Courier,monospace" font-size="11.00">Configuration_Input_Text</text>
</g>
<!-- \\Configuration_Input_Text&#45;&gt;\\Configuration_Input -->
<g id="edge11" class="edge"><title>\\Configuration_Input_Text&#45;&gt;\\Configuration_Input</title>
<path fill="none" stroke="black" d="M249.081,-753.944C223.007,-748.126 194.135,-741.683 168.119,-735.878"/>
<polygon fill="none" stroke="black" points="168.822,-732.449 158.3,-733.687 167.298,-739.281 168.822,-732.449"/>
</g>
<!-- \\Configuration_Input_Email -->
<g id="node21" class="node"><title>\\Configuration_Input_Email</title>
<polygon fill="none" stroke="black" points="421.527,-736 240.473,-736 240.473,-700 421.527,-700 421.527,-736"/>
<text text-anchor="middle" x="331" y="-713.6" font-family="Courier,monospace" font-size="11.00">Configuration_Input_Email</text>
</g>
<!-- \\Configuration_Input_Email&#45;&gt;\\Configuration_Input -->
<g id="edge13" class="edge"><title>\\Configuration_Input_Email&#45;&gt;\\Configuration_Input</title>
<path fill="none" stroke="black" d="M240.232,-718C216.68,-718 191.434,-718 168.406,-718"/>
<polygon fill="none" stroke="black" points="168.341,-714.5 158.341,-718 168.341,-721.5 168.341,-714.5"/>
</g>
<!-- \\Configuration_Input_Url -->
<g id="node22" class="node"><title>\\Configuration_Input_Url</title>
<polygon fill="none" stroke="black" points="414.825,-682 247.175,-682 247.175,-646 414.825,-646 414.825,-682"/>
<text text-anchor="middle" x="331" y="-659.6" font-family="Courier,monospace" font-size="11.00">Configuration_Input_Url</text>
</g>
<!-- \\Configuration_Input_Url&#45;&gt;\\Configuration_Input -->
<g id="edge15" class="edge"><title>\\Configuration_Input_Url&#45;&gt;\\Configuration_Input</title>
<path fill="none" stroke="black" d="M249.081,-682.056C223.007,-687.874 194.135,-694.317 168.119,-700.122"/>
<polygon fill="none" stroke="black" points="167.298,-696.719 158.3,-702.313 168.822,-703.551 167.298,-696.719"/>
</g>
<!-- \\Configuration_Input_Select -->
<g id="node23" class="node"><title>\\Configuration_Input_Select</title>
<polygon fill="none" stroke="black" points="424.628,-628 237.372,-628 237.372,-592 424.628,-592 424.628,-628"/>
<text text-anchor="middle" x="331" y="-605.6" font-family="Courier,monospace" font-size="11.00">Configuration_Input_Select</text>
</g>
<!-- \\Configuration_Input_Select&#45;&gt;\\Configuration_Input -->
<g id="edge17" class="edge"><title>\\Configuration_Input_Select&#45;&gt;\\Configuration_Input</title>
<path fill="none" stroke="black" d="M254.766,-628.077C246.306,-630.767 237.897,-633.744 230,-637 191.999,-652.667 151.548,-676.531 123.581,-694.304"/>
<polygon fill="none" stroke="black" points="121.481,-691.493 114.958,-699.842 125.263,-697.383 121.481,-691.493"/>
</g>
<!-- \\Configuration_Input_Radio -->
<g id="node24" class="node"><title>\\Configuration_Input_Radio</title>
<polygon fill="none" stroke="black" points="421.527,-574 240.473,-574 240.473,-538 421.527,-538 421.527,-574"/>
<text text-anchor="middle" x="331" y="-551.6" font-family="Courier,monospace" font-size="11.00">Configuration_Input_Radio</text>
</g>
<!-- \\Configuration_Input_Radio&#45;&gt;\\Configuration_Input -->
<g id="edge19" class="edge"><title>\\Configuration_Input_Radio&#45;&gt;\\Configuration_Input</title>
<path fill="none" stroke="black" d="M249.176,-574.007C242.518,-576.627 236.036,-579.609 230,-583 179.853,-611.177 133.996,-661.034 108.643,-691.635"/>
<polygon fill="none" stroke="black" points="105.656,-689.759 102.049,-699.721 111.081,-694.183 105.656,-689.759"/>
</g>
<!-- \\Configuration_Input_Checkbox -->
<g id="node25" class="node"><title>\\Configuration_Input_Checkbox</title>
<polygon fill="none" stroke="black" points="431.33,-520 230.67,-520 230.67,-484 431.33,-484 431.33,-520"/>
<text text-anchor="middle" x="331" y="-497.6" font-family="Courier,monospace" font-size="11.00">Configuration_Input_Checkbox</text>
</g>
<!-- \\Configuration_Input_Checkbox&#45;&gt;\\Configuration_Input -->
<g id="edge21" class="edge"><title>\\Configuration_Input_Checkbox&#45;&gt;\\Configuration_Input</title>
<path fill="none" stroke="black" d="M245.995,-520.081C240.384,-522.667 234.989,-525.623 230,-529 167.885,-571.048 122.085,-649.388 100.964,-690.77"/>
<polygon fill="none" stroke="black" points="97.8245,-689.223 96.4818,-699.733 104.085,-692.355 97.8245,-689.223"/>
</g>
<!-- \\Configuration_Input_Textarea -->
<g id="node26" class="node"><title>\\Configuration_Input_Textarea</title>
<polygon fill="none" stroke="black" points="431.33,-1492 230.67,-1492 230.67,-1456 431.33,-1456 431.33,-1492"/>
<text text-anchor="middle" x="331" y="-1469.6" font-family="Courier,monospace" font-size="11.00">Configuration_Input_Textarea</text>
</g>
<!-- \\Configuration_Input_Textarea&#45;&gt;\\Configuration_Input -->
<g id="edge23" class="edge"><title>\\Configuration_Input_Textarea&#45;&gt;\\Configuration_Input</title>
<path fill="none" stroke="black" d="M240.158,-1455.76C236.482,-1453.2 233.064,-1450.29 230,-1447 132.12,-1341.88 97.0563,-867.579 89.6071,-746.307"/>
<polygon fill="none" stroke="black" points="93.0816,-745.776 88.9891,-736.003 86.0942,-746.195 93.0816,-745.776"/>
</g>
<!-- \\Configuration_Input_Html -->
<g id="node27" class="node"><title>\\Configuration_Input_Html</title>
<polygon fill="none" stroke="black" points="418.426,-898 243.574,-898 243.574,-862 418.426,-862 418.426,-898"/>
<text text-anchor="middle" x="331" y="-875.6" font-family="Courier,monospace" font-size="11.00">Configuration_Input_Html</text>
</g>
<!-- \\Configuration_Input_Html&#45;&gt;\\Configuration_Input -->
<g id="edge25" class="edge"><title>\\Configuration_Input_Html&#45;&gt;\\Configuration_Input</title>
<path fill="none" stroke="black" d="M249.176,-861.993C242.518,-859.373 236.036,-856.391 230,-853 179.853,-824.823 133.996,-774.966 108.643,-744.365"/>
<polygon fill="none" stroke="black" points="111.081,-741.817 102.049,-736.279 105.656,-746.241 111.081,-741.817"/>
</g>
<!-- \\File -->
<g id="node28" class="node"><title>\\File</title>
<polygon fill="none" stroke="black" points="358,-358 304,-358 304,-322 358,-322 358,-358"/>
<text text-anchor="middle" x="331" y="-335.6" font-family="Courier,monospace" font-size="11.00">File</text>
</g>
<!-- \\GdImage -->
<g id="node29" class="node"><title>\\GdImage</title>
<polygon fill="none" stroke="black" points="362.208,-304 299.792,-304 299.792,-268 362.208,-268 362.208,-304"/>
<text text-anchor="middle" x="331" y="-281.6" font-family="Courier,monospace" font-size="11.00">GdImage</text>
</g>
<!-- \\Upload -->
<g id="node30" class="node"><title>\\Upload</title>
<polygon fill="none" stroke="black" points="358.608,-250 303.392,-250 303.392,-214 358.608,-214 358.608,-250"/>
<text text-anchor="middle" x="331" y="-227.6" font-family="Courier,monospace" font-size="11.00">Upload</text>
</g>
<!-- \\DateInterval -->
<g id="node31" class="node"><title>\\DateInterval</title>
<polygon fill="none" stroke="black" points="378.713,-196 283.287,-196 283.287,-160 378.713,-160 378.713,-196"/>
<text text-anchor="middle" x="331" y="-173.6" font-family="Courier,monospace" font-size="11.00">DateInterval</text>
</g>
<!-- \\Pagination -->
<g id="node32" class="node"><title>\\Pagination</title>
<polygon fill="none" stroke="black" points="372.011,-142 289.989,-142 289.989,-106 372.011,-106 372.011,-142"/>
<text text-anchor="middle" x="331" y="-119.6" font-family="Courier,monospace" font-size="11.00">Pagination</text>
</g>
<!-- \\Attachment -->
<g id="node33" class="node"><title>\\Attachment</title>
<polygon fill="none" stroke="black" points="372.5,-466 289.5,-466 289.5,-430 372.5,-430 372.5,-466"/>
<text text-anchor="start" x="298" y="-449.5" font-family="Courier,monospace" font-size="11.00">«abstract»</text>
<text text-anchor="start" x="298" y="-438.5" font-family="Courier,monospace" font-size="11.00">Attachment</text>
</g>
<!-- \\Attachment&#45;&gt;\\Model -->
<g id="edge27" class="edge"><title>\\Attachment&#45;&gt;\\Model</title>
<path fill="none" stroke="black" d="M289.495,-443.481C248.051,-438.857 183.55,-431.661 138.732,-426.66"/>
<polygon fill="none" stroke="black" points="138.964,-423.164 128.638,-425.534 138.188,-430.121 138.964,-423.164"/>
</g>
</g>
</svg>
